HIERARCHY
ROOT Pelvis
{
	OFFSET 0.000000 0.000000 0.000000
	CHANNELS 6 Xposition Yposition Zposition Xrotation Yrotation Zrotation
	JOINT LeftUpLeg_virtual
	{
		OFFSET 0.000000 0.000000 0.000000
		CHANNELS 3 Xrotation Yrotation Zrotation
		JOINT LeftUpLeg
		{
			OFFSET 18.735201 -5.666702 -4.541200
			CHANNELS 3 Xrotation Yrotation Zrotation
			JOINT LeftLeg
			{
				OFFSET -0.021200 -31.938179 0.493100
				CHANNELS 3 Xrotation Yrotation Zrotation
				JOINT LeftFoot
				{
					OFFSET 0.021200 -31.938179 -4.336299
					CHANNELS 3 Xrotation Yrotation Zrotation
					JOINT LeftToeBase
					{
						OFFSET 0.943001 -26.722000 15.023500
						CHANNELS 3 Xrotation Yrotation Zrotation
						End Site
						{
							OFFSET 0 0 0
						}
					}
				}
			}
		}
	}
	JOINT RightUpLeg_virtual
	{
		OFFSET 0.000000 0.000000 0.000000
		CHANNELS 3 Xrotation Yrotation Zrotation
		JOINT RightUpLeg
		{
			OFFSET -18.735201 -5.666702 -4.541200
			CHANNELS 3 Xrotation Yrotation Zrotation
			JOINT RightLeg
			{
				OFFSET 0.018946 -31.938133 0.493100
				CHANNELS 3 Xrotation Yrotation Zrotation
				JOINT RightFoot
				{
					OFFSET -0.018946 -31.938126 -4.336299
					CHANNELS 3 Xrotation Yrotation Zrotation
					JOINT RightToeBase
					{
						OFFSET -0.943001 -26.722004 15.023500
						CHANNELS 3 Xrotation Yrotation Zrotation
						End Site
						{
							OFFSET 0 0 0
						}
					}
				}
			}
		}
	}
	JOINT Hips_virtual
	{
		OFFSET 0.000000 0.000000 0.000000
		CHANNELS 3 Xrotation Yrotation Zrotation
		JOINT Hips
		{
			OFFSET -0.000000 -0.000000 -0.000000
			CHANNELS 3 Xrotation Yrotation Zrotation
			JOINT Spine
			{
				OFFSET 0.000000 10.199997 -0.299500
				CHANNELS 3 Xrotation Yrotation Zrotation
				JOINT Spine1
				{
					OFFSET 0.000000 11.900002 -1.516600
					CHANNELS 3 Xrotation Yrotation Zrotation
					JOINT Spine2
					{
						OFFSET 0.000000 13.600006 -2.842500
						CHANNELS 3 Xrotation Yrotation Zrotation
						JOINT Neck_virtual
						{
							OFFSET 0.000000 0.000000 0.000000
							CHANNELS 3 Xrotation Yrotation Zrotation
							JOINT Neck
							{
								OFFSET 0.000000 9.624100 -2.890100
								CHANNELS 3 Xrotation Yrotation Zrotation
								JOINT Head
								{
									OFFSET 0.000000 14.068802 -1.351900
									CHANNELS 3 Xrotation Yrotation Zrotation
									End Site
									{
										OFFSET 0 0 0
									}
								}
							}
						}
						JOINT LeftShoulder_virtual
						{
							OFFSET 0.000000 0.000000 0.000000
							CHANNELS 3 Xrotation Yrotation Zrotation
							JOINT LeftShoulder
							{
								OFFSET 15.263000 10.923401 -0.547700
								CHANNELS 3 Xrotation Yrotation Zrotation
								JOINT LeftArm
								{
									OFFSET 25.438599 -2.830597 -13.032500
									CHANNELS 3 Xrotation Yrotation Zrotation
									JOINT LeftForeArm
									{
										OFFSET 29.960503 0.000000 0.000000
										CHANNELS 3 Xrotation Yrotation Zrotation
										JOINT LeftHand
										{
											OFFSET 27.849251 0.000000 0.000000
											CHANNELS 3 Xrotation Yrotation Zrotation
											End Site
											{
												OFFSET 0 0 0
											}
										}
									}
								}
							}
						}
						JOINT RightShoulder_virtual
						{
							OFFSET 0.000000 0.000000 0.000000
							CHANNELS 3 Xrotation Yrotation Zrotation
							JOINT RightShoulder
							{
								OFFSET -15.263000 10.923401 -0.547700
								CHANNELS 3 Xrotation Yrotation Zrotation
								JOINT RightArm
								{
									OFFSET -25.438599 -2.830597 -13.032500
									CHANNELS 3 Xrotation Yrotation Zrotation
									JOINT RightForeArm
									{
										OFFSET -29.960503 0.000000 0.000000
										CHANNELS 3 Xrotation Yrotation Zrotation
										JOINT RightHand
										{
											OFFSET -27.849251 0.000000 0.000000
											CHANNELS 3 Xrotation Yrotation Zrotation
											End Site
											{
												OFFSET 0 0 0
											}
										}
									}
								}
							}
						}
					}
				}
			}
		}
	}
}
MOTION
Frames: 8
Frame Time: 0.03333333
-2.829789 89.222900 -0.257085 0.000000 0.000000 0.000000 -9.878254 -19.239410 -3.154129 -55.660164 3.725766 16.090565 58.583680 0.342321 -0.702474 7.021374 -0.067621 -6.284173 0.000000 0.000000 0.000000 6.192784 -2.739781 8.932742 -22.566783 -7.769966 -5.657812 38.889096 4.265135 -4.086111 -15.472146 2.139935 7.852494 0.000000 0.000000 0.000000 -0.247699 -6.382026 1.552444 2.489812 6.968403 3.701569 9.530240 -0.203362 -3.936440 3.299951 0.098000 -1.776880 0.000000 0.000000 0.000000 4.769609 -0.246824 -0.961883 -0.264866 0.163025 -0.189288 0.000000 0.000000 0.000000 2.220935 0.126258 -1.218516 1.122618 -0.793621 -12.636565 7.069583 -6.330004 -53.088222 5.068658 -42.484716 -0.897490 0.000000 0.000000 0.000000 4.568398 0.046996 0.493443 2.153429 3.446525 11.612007 7.845280 6.018352 44.346588 6.718757 53.599787 -1.413595 0.000000 0.000000 0.000000 
-2.942725 89.153137 -0.490344 0.000000 0.000000 0.000000 -9.784686 -19.570247 -3.217073 -55.498955 3.695128 15.997179 57.394578 0.211455 -0.628544 6.147962 -0.202131 -6.277649 0.000000 0.000000 0.000000 6.135835 -2.650018 8.963865 -22.690129 -7.750162 -5.649921 38.968975 4.161397 -4.045981 -15.430246 2.025024 7.852965 0.000000 0.000000 0.000000 -0.157313 -6.304153 1.571450 2.853916 7.092476 3.783715 9.628850 -0.176838 -3.945720 3.371000 0.105957 -1.787025 0.000000 0.000000 0.000000 4.813310 -0.246709 -0.960449 -0.242170 0.156015 -0.185771 0.000000 0.000000 0.000000 2.294000 0.119367 -1.215404 1.164184 -0.838777 -12.621073 7.112705 -6.414638 -53.211371 5.101922 -42.620261 -0.916557 0.000000 0.000000 0.000000 4.635330 0.086423 0.512607 2.180009 3.646010 11.674472 7.751901 6.198044 44.077557 6.768585 53.636492 -1.545383 0.000000 0.000000 0.000000 
-3.041468 89.096581 -0.736124 0.000000 0.000000 0.000000 -9.584446 -19.884455 -3.259109 -55.223869 3.686058 15.909794 56.293176 0.098790 -0.537115 5.331703 -0.327957 -6.225418 0.000000 0.000000 0.000000 6.083395 -2.536645 8.983475 -22.797329 -7.721679 -5.647447 39.033080 4.073367 -4.019237 -15.378833 1.936158 7.838708 0.000000 0.000000 0.000000 -0.057244 -6.234859 1.589051 3.264909 7.217100 3.844312 9.711398 -0.166190 -3.939077 3.433468 0.104818 -1.788120 0.000000 0.000000 0.000000 4.848394 -0.250739 -0.952131 -0.223671 0.148467 -0.180043 0.000000 0.000000 0.000000 2.359289 0.110372 -1.207028 1.200223 -0.868590 -12.600868 7.144842 -6.496911 -53.329301 5.132327 -42.766048 -0.933085 0.000000 0.000000 0.000000 4.697911 0.118300 0.532931 2.204440 3.825177 11.736013 7.642945 6.369797 43.820089 6.814481 53.707505 -1.682350 0.000000 0.000000 0.000000 
-3.128879 89.073387 -0.994493 0.000000 0.000000 0.000000 -9.296275 -20.145423 -3.287174 -54.858092 3.706613 15.825914 55.291816 -0.002577 -0.440641 4.577280 -0.446885 -6.153545 0.000000 0.000000 0.000000 6.037412 -2.410183 8.992505 -22.884800 -7.687586 -5.649152 39.064017 3.993787 -4.005719 -15.326868 1.866126 7.803378 0.000000 0.000000 0.000000 0.053173 -6.174174 1.605336 3.722029 7.343386 3.882458 9.781294 -0.172954 -3.921025 3.488965 0.093887 -1.782592 0.000000 0.000000 0.000000 4.875444 -0.259718 -0.937663 -0.209205 0.140064 -0.172507 0.000000 0.000000 0.000000 2.418541 0.097523 -1.193949 1.231870 -0.889445 -12.577889 7.174181 -6.586575 -53.434585 5.165081 -42.923450 -0.943067 0.000000 0.000000 0.000000 4.755263 0.141565 0.554468 2.226231 3.979993 11.796562 7.519143 6.529741 43.581730 6.853406 53.808367 -1.818833 0.000000 0.000000 0.000000 
-3.207791 89.102509 -1.265734 0.000000 0.000000 0.000000 -8.934657 -20.327353 -3.309817 -54.417941 3.763778 15.740478 54.395770 -0.099782 -0.351196 3.886404 -0.560875 -6.087689 0.000000 0.000000 0.000000 5.999471 -2.281033 8.993045 -22.950122 -7.651177 -5.652979 39.044455 3.914441 -4.005019 -15.283694 1.806631 7.740382 0.000000 0.000000 0.000000 0.174409 -6.121829 1.620467 4.223720 7.471228 3.898875 9.841888 -0.198615 -3.895960 3.538994 0.072542 -1.772772 0.000000 0.000000 0.000000 4.895055 -0.274617 -0.917921 -0.198530 0.130331 -0.163607 0.000000 0.000000 0.000000 2.473636 0.079219 -1.176834 1.260318 -0.907970 -12.554049 7.209033 -6.693874 -53.520741 5.205579 -43.093299 -0.943034 0.000000 0.000000 0.000000 4.806564 0.155034 0.577354 2.245013 4.105713 11.856268 7.383772 6.673514 43.370506 6.883103 53.933035 -1.948931 0.000000 0.000000 0.000000 
-3.280280 89.197975 -1.550479 0.000000 0.000000 0.000000 -8.510553 -20.421205 -3.335469 -53.914184 3.860964 15.647521 53.607614 -0.200436 -0.278516 3.260860 -0.673423 -6.050001 0.000000 0.000000 0.000000 5.970489 -2.156466 8.988129 -22.992350 -7.615136 -5.656099 38.961694 3.827702 -4.016605 -15.256645 1.749835 7.644141 0.000000 0.000000 0.000000 0.306682 -6.077589 1.634707 4.767653 7.598241 3.896228 9.895912 -0.244345 -3.867414 3.584669 0.040357 -1.760489 0.000000 0.000000 0.000000 4.907849 -0.296340 -0.893742 -0.191330 0.118741 -0.153720 0.000000 0.000000 0.000000 2.526141 0.054288 -1.156434 1.286509 -0.930056 -12.531178 7.255835 -6.827726 -53.583230 5.258111 -43.275898 -0.930744 0.000000 0.000000 0.000000 4.851334 0.157632 0.601735 2.260738 4.197720 11.915280 7.242807 6.796594 43.192689 6.902786 54.073733 -2.067868 0.000000 0.000000 0.000000 
-3.347330 89.365547 -1.849580 0.000000 0.000000 0.000000 -8.032244 -20.435100 -3.370437 -53.353784 3.996803 15.542160 52.930076 -0.312007 -0.228783 2.704167 -0.789603 -6.056607 0.000000 0.000000 0.000000 5.950436 -2.038792 8.981419 -23.012366 -7.580951 -5.655193 38.811351 3.727835 -4.039817 -15.249096 1.689565 7.511390 0.000000 0.000000 0.000000 0.449748 -6.041392 1.648374 5.349970 7.719408 3.879048 9.945094 -0.310681 -3.837583 3.626516 -0.002756 -1.746799 0.000000 0.000000 0.000000 4.914481 -0.325483 -0.865788 -0.187215 0.104846 -0.143079 0.000000 0.000000 0.000000 2.576960 0.022216 -1.133533 1.310900 -0.959973 -12.510951 7.317737 -6.994281 -53.620202 5.324921 -43.470975 -0.905651 0.000000 0.000000 0.000000 4.889604 0.148627 0.627697 2.273752 4.252408 11.973535 7.104593 6.894489 43.051041 6.913487 54.220866 -2.172998 0.000000 0.000000 0.000000 
-3.408958 89.600548 -2.163706 0.000000 0.000000 0.000000 -7.505983 -20.389861 -3.417155 -52.741495 4.165390 15.422313 52.366726 -0.440369 -0.204075 2.221808 -0.914811 -6.115593 0.000000 0.000000 0.000000 5.938061 -1.924956 8.976726 -23.013276 -7.548684 -5.646947 38.599574 3.611727 -4.073729 -15.259447 1.621940 7.342108 0.000000 0.000000 0.000000 0.602584 -6.013202 1.661751 5.964094 7.827463 3.853203 9.990060 -0.397222 -3.807227 3.664463 -0.056395 -1.731931 0.000000 0.000000 0.000000 4.915666 -0.362130 -0.834527 -0.185724 0.088380 -0.131765 0.000000 0.000000 0.000000 2.626154 -0.016697 -1.108922 1.333369 -0.999747 -12.494877 7.393996 -7.196184 -53.632848 5.405769 -43.677960 -0.869049 0.000000 0.000000 0.000000 4.921906 0.127819 0.655200 2.284729 4.267904 12.030626 6.979034 6.962825 42.944046 6.917953 54.362965 -2.264181 0.000000 0.000000 0.000000 
